<?xml version="1.0" standalone="no"?>
<!DOCTYPE svg PUBLIC "-//W3C//DTD SVG 20010904//EN"
 "http://www.w3.org/TR/2001/REC-SVG-20010904/DTD/svg10.dtd">
<svg version="1.0" xmlns="http://www.w3.org/2000/svg"
 width="300.000000pt" height="300.000000pt" viewBox="0 0 300.000000 300.000000"
 preserveAspectRatio="xMidYMid meet">
<metadata>
Created by potrace 1.14, written by Peter Selinger 2001-2017
</metadata>
<g transform="translate(0.000000,300.000000) scale(0.100000,-0.100000)"
fill="#000000" stroke="none">
<path d="M731 2359 c-148 -33 -240 -75 -356 -164 -284 -217 -381 -619 -243
-1010 84 -241 256 -406 520 -500 91 -32 335 -57 363 -37 20 13 175 201 175
211 0 5 -87 11 -207 13 -177 4 -216 8 -263 25 -204 75 -348 221 -415 418 -39
114 -37 284 6 412 46 139 183 293 321 361 109 53 166 63 371 69 103 3 187 8
187 10 0 3 -39 52 -87 109 l-87 104 -101 -1 c-59 0 -134 -8 -184 -20z"/>
<path d="M1147 2357 c10 -13 171 -204 358 -426 187 -221 341 -409 343 -417 2
-8 -14 -34 -35 -58 -21 -23 -79 -91 -130 -152 -50 -60 -182 -217 -293 -348
-212 -252 -250 -299 -250 -309 0 -4 63 -7 139 -7 l140 0 23 29 c13 15 91 108
173 206 250 297 384 456 461 548 l74 89 -23 28 c-12 15 -69 83 -127 151 -219
259 -537 637 -557 662 l-21 27 -147 0 -146 0 18 -23z"/>
<path d="M2548 2291 c-78 -95 -325 -388 -343 -407 -25 -26 -120 -146 -119
-151 1 -12 119 -152 128 -153 4 0 17 11 27 24 11 13 51 62 90 108 133 154 214
250 434 513 50 61 99 116 108 124 10 7 17 17 17 22 0 5 -61 9 -135 9 l-134 0
-73 -89z"/>
<path d="M2195 1427 c-11 -13 -42 -49 -68 -80 l-49 -57 112 -133 c62 -72 182
-216 268 -319 l157 -187 138 -1 137 0 -77 92 c-43 50 -127 151 -188 222 -60
72 -119 142 -131 156 -111 130 -158 186 -213 253 -35 42 -64 77 -65 77 0 0
-10 -11 -21 -23z"/>
</g>
</svg>
