<svg xmlns="http://www.w3.org/2000/svg" width="35" height="35" fill="currentColor" viewBox="0 0 35 35">
  <circle cx="17.5" cy="17.5" r="17.25"/>
  <path d="M9 23h6c.425 0 .781.144 1.07.432.288.288.431.644.43 1.068 0 .425-.144.782-.432 1.07A1.446 1.446 0 0 1 15 26H7.5c-.425 0-.781-.144-1.07-.432A1.446 1.446 0 0 1 6 24.5v-12c0-.425.144-.781.432-1.07A1.446 1.446 0 0 1 7.5 11H15c.425 0 .781.144 1.07.432.288.288.431.644.43 1.068 0 .425-.144.781-.432 1.07A1.446 1.446 0 0 1 15 14H9v3h4.5c.425 0 .781.144 1.07.432.287.288.431.644.43 1.068 0 .425-.144.782-.432 1.07A1.446 1.446 0 0 1 13.5 20H9v3Zm13.5 3a2.89 2.89 0 0 1-2.12-.882A2.883 2.883 0 0 1 19.5 23c0-.425.144-.782.432-1.07A1.446 1.446 0 0 1 21 21.5c.425 0 .782.144 1.07.432.288.288.431.644.43 1.068H27v-3h-4.5a2.89 2.89 0 0 1-2.12-.882A2.883 2.883 0 0 1 19.5 17v-3c0-.825.294-1.531.882-2.12A2.883 2.883 0 0 1 22.5 11H27a2.89 2.89 0 0 1 2.12.882c.587.588.881 1.294.88 2.118 0 .425-.144.781-.432 1.07a1.446 1.446 0 0 1-1.068.43c-.425 0-.782-.144-1.07-.432A1.446 1.446 0 0 1 27 14h-4.5v3H27a2.89 2.89 0 0 1 2.12.882c.587.588.881 1.294.88 2.118v3a2.89 2.89 0 0 1-.882 2.12A2.883 2.883 0 0 1 27 26h-4.5Z"/>
</svg>
